<svg width="26" height="20" viewBox="0 0 26 20" fill="none" xmlns="http://www.w3.org/2000/svg">
<path fill-rule="evenodd" clip-rule="evenodd" d="M16.7263 0.586306C17.0311 0.210895 17.4443 0 17.8752 0C18.3061 0 18.7194 0.210895 19.0241 0.586306L25.5242 8.59632C25.8289 8.97184 26 9.4811 26 10.0121C26 10.5431 25.8289 11.0523 25.5242 11.4279L19.0241 19.4379C18.7176 19.8026 18.3072 20.0045 17.8811 19.9999C17.455 19.9954 17.0474 19.7848 16.7461 19.4135C16.4449 19.0422 16.2739 18.5399 16.2702 18.0149C16.2665 17.4898 16.4303 16.984 16.7263 16.6063L20.4525 12.0146H1.62502C1.19404 12.0146 0.780708 11.8036 0.475958 11.4281C0.171207 11.0525 0 10.5432 0 10.0121C0 9.48099 0.171207 8.97165 0.475958 8.59611C0.780708 8.22056 1.19404 8.00959 1.62502 8.00959H11.0388H20.4525L16.7263 3.41785C16.4217 3.04232 16.2506 2.53307 16.2506 2.00208C16.2506 1.47108 16.4217 0.961831 16.7263 0.586306Z" fill="#04395E"/>
</svg>
