<svg id="Layer_1" data-name="Layer 1" xmlns="http://www.w3.org/2000/svg" width="479.41" height="180.58" viewBox="0 0 479.41 180.58"><defs><style>.cls-1,.cls-3,.cls-4{fill:none;stroke-miterlimit:10;stroke-width:1.4px;}.cls-1,.cls-3{stroke:#2f698d;}.cls-1,.cls-2,.cls-4{opacity:0.5;}.cls-4{stroke:#326a8a;}</style></defs><path class="cls-1" d="M303.52,99.14a.25.25,0,0,0,.39-.22,5,5,0,0,0-.45-2.15c-.57-1.13-9.42-18.4-9.81-19.61s-5.47-10.55-5.89-11.82S281.71,51.73,281,50.25s-10.58-20.5-11.19-21.2-9-8.88-10.17-9.07-10-1.14-11.81,2.38,2.8,3.93,3.2,3.82,6.1-2.31,8-2.21a9.22,9.22,0,0,1,5.53,2.78c.79,1.09,1.88,2.2,1.37,3.05s-4.79-3-7.28-1.79-5.26,2.22-5.39,5.59,4.45,1.95,4.64,1.73,3.74-3.47,7.73-2.36,6.79,5.68,6.47,7.14-2.08,1.34-7.9-2.35c0,0-4.57-1.41-5.55.07s-1.29,3.76,3.34,4,9.42.76,11,3.58,2.47,3,1.32,4.12-7.12-3.59-8.72-3.5-4,.28-4.21,1.89.6,3.67,3.9,3.57,6.07-.92,9,1.24,4.59,2.62,3.29,5.58-5.78.44-6.07-.07-1.82-3-3.38-2.25-3.45,3-.91,4.55,4.73,1,6.75,1.15,5.52,0,6.55.71,2.53,2,1.22,3.16-5.1,1.81-6.05,1.74a3.63,3.63,0,0,0-2.91.71,3.07,3.07,0,0,0-1.11,2.61c.14.53.78,2.24,2,1.71a41.17,41.17,0,0,0,4.22-2.74c.85-.56,4.19-2.64,5.13-1.89s2.78,3.32,1.17,5.24a7.74,7.74,0,0,1-6.24,2.74,2,2,0,0,0-.42,3.86c2.22.3,2.33.4,5-1.61s6.93-2.46,7.69,1.7-.38,5.23-1.81,5.37-4.49-2.61-6.13-1.9-2.3,2.08-1.87,3.24a3.27,3.27,0,0,0,3.26,2.19,23.6,23.6,0,0,0,5.73-1.74,3.12,3.12,0,0,1,3.27.09c.88.4,3.35,3.53,3.4,5.18s.56,3.31-2.36,3.21-4.58-3.16-6.28-2.93-4.77,1.14-2.6,3.17,3.66,3.24,5.29,3.12a8.81,8.81,0,0,0,4.76-1.24s2.9-1,4.14-.65A31.29,31.29,0,0,1,303.52,99.14Z"/><g class="cls-2"><path class="cls-3" d="M362.07,41.08c-.64-1.2-6.63-7.73-2.26-18.48,4.21-10.34,9.28-13.42,12.3-14.55C372.9,7.76,390,2,390.72.8s7.95,21.72-3.8,36.6S362.07,41.08,362.07,41.08Z"/><path class="cls-3" d="M390.72.8s8.14,1.81-28.65,40.28"/><path class="cls-3" d="M378.12,6c-.22,4.5,2,15,2,15s10,1.64,13.3-1.53"/><path class="cls-3" d="M367.59,10.77c-1.35,12.08,5.07,19.06,5.07,19.06s9.28,4.47,17.72,2.9"/></g><path class="cls-1" d="M315.33,23.67a7.1,7.1,0,0,1,4.19-3.16c1.63-.29,2.29.36,2.15,1.63-.29,2.65-2.52,5.59-5.07,7.07-1.72,1-5,1.46-6.22-.37-1.55-2.36,1.27-5.74,3-7.51a14.22,14.22,0,0,1,10.32-4.58c5.3.07,8,3.48,7.19,7.77a17.75,17.75,0,0,1-6.61,10.15c-3.34,2.59-8.44,4.45-13,3.58a9.37,9.37,0,0,1-7.35-7c-2-7.81,6.06-14.17,13.2-17.8"/><path class="cls-1" d="M366.85,156c.11,0-4.35,8.16-4.65,9.48-.46,2.11,5.19,2.35,7.28,1.86s2.42-11.53,2.42-11.53,1.06-1.35,5,1.93c0,0,3.18,2.45,1.31-3s-1.8-7.07-3.14-11.92c-1.09-3.95-9.8,8.3-13,13a.66.66,0,0,0,.7,1A18.15,18.15,0,0,0,366.85,156Z"/><path class="cls-1" d="M154.34,140.56c.12,0-4.43,8.31-4.73,9.65-.47,2.15,5.28,2.39,7.41,1.9s2.47-11.75,2.47-11.75,1.08-1.37,5.11,2c0,0,3.22,2.49,1.32-3.1s-1.82-7.2-3.19-12.14c-1.11-4-10,8.45-13.22,13.21a.68.68,0,0,0,.71,1A19.16,19.16,0,0,0,154.34,140.56Z"/><polygon class="cls-1" points="116.65 43.03 110.62 46.55 93.81 23.92 86.34 28.56 80.53 20.84 99.88 11.81 105.3 16.52 97.94 21.33 116.65 43.03"/><path class="cls-1" d="M403.93,89.73c-.26-.36-2.84-3.26,1.05-10s8.39-15.33,7.14-23.09-5-2.05-4.54-30.23S419,9.8,420,12.85s-1.93,27.6-3.15,33.16c-.87,4,1.68,9.66,3.36,10.71s4.93-1.57,5-5.35-2-7.24-2.09-10.6S425,5.94,435.42,7.92s-1.16,21.62-3.05,29.7-4.09,15.32-.94,13.75,10.07-15.12,11.33-17.11,21.89-30.65,31.17-19.73-33.84,35.16-38.78,39.88,12.7,1.68,26.77-3.25,15.42,6.08,12.17,8.5-19.73,4.62-32.22,2.52c-6.68-1.12-10.89,0-13.37,1.24a3.07,3.07,0,0,0,0,5.52,30.47,30.47,0,0,0,9.25,2.26c12.91,1.58,27.18-5.66,34.84-1.89s6,9,2.94,10.5-6.61,6-21.31,2.1-15.32-7.77-30.33-9.45-14.06,10.81-13.75,10.81,0,2.63,12.39-.1,12.59,2,12.59,4.41-3.57,5.66-12.07,5.87-9-3.67-11.54-3.67S405.87,92.4,403.93,89.73Z"/><path class="cls-1" d="M301.83,116.55c.19.25,2,2.33-.75,7.14s-6,11-5.11,16.54,3.56,1.46,3.25,21.65-8.21,11.91-8.89,9.73,1.38-19.77,2.26-23.75c.62-2.83-1.21-6.92-2.41-7.67s-3.53,1.13-3.61,3.83,1.43,5.19,1.51,7.6-1.36,24.95-8.8,23.52.83-15.48,2.18-21.27,2.93-11,.68-9.85-7.22,10.83-8.12,12.26-15.68,21.95-22.33,14.13,24.24-25.18,27.78-28.57-9.1-1.2-19.17,2.33-11.05-4.36-8.72-6.09,14.13-3.3,23.08-1.8c4.78.8,7.8,0,9.57-.89a2.19,2.19,0,0,0,0-3.95,21.51,21.51,0,0,0-6.62-1.62c-9.25-1.13-19.47,4.05-25,1.35s-4.29-6.47-2.11-7.52,4.74-4.28,15.27-1.5,11,5.56,21.72,6.76,10.08-7.74,9.85-7.74,0-1.88-8.87.07-9-1.42-9-3.15,2.55-4.06,8.64-4.21,6.47,2.63,8.27,2.63S300.44,114.63,301.83,116.55Z"/><path class="cls-1" d="M389.6,121c-.18.26-2,2.33.76,7.14s6,11,5.11,16.54-3.56,1.47-3.25,21.65,8.21,11.92,8.89,9.74-1.38-19.78-2.26-23.76c-.62-2.82,1.21-6.92,2.41-7.67s3.53,1.13,3.61,3.84-1.43,5.18-1.51,7.59,1.35,24.95,8.8,23.53-.83-15.49-2.18-21.28-2.93-11-.68-9.84,7.22,10.82,8.12,12.25,15.67,21.95,22.33,14.13S415.5,149.69,412,146.31s9.1-1.21,19.17,2.33,11.05-4.36,8.72-6.09-14.13-3.31-23.08-1.81c-4.78.81-7.8,0-9.58-.88a2.21,2.21,0,0,1,0-4,21.81,21.81,0,0,1,6.62-1.62c9.25-1.13,19.47,4.06,25,1.35s4.28-6.46,2.1-7.52-4.73-4.28-15.26-1.5-11,5.56-21.72,6.77-10.08-7.75-9.85-7.75,0-1.88,8.87.08,9-1.43,9-3.16-2.56-4.06-8.65-4.21-6.46,2.63-8.27,2.63S391,119.09,389.6,121Z"/><g class="cls-2"><path class="cls-3" d="M317.33,126.61a9.39,9.39,0,0,1,.06-1.83l.38-.48a.86.86,0,0,1,1.08-.23l1.08.59a11.6,11.6,0,0,1,3.5.93c.37.23.71.48,1,.69a.56.56,0,0,1-.12,1c-1.31.55-3.67,1.67-4.32,2.89a3.42,3.42,0,0,1-1.34,1.38.82.82,0,0,1-1.21-.7Z"/><path class="cls-3" d="M324.45,132c-.14.61.33.75.68.22a12.59,12.59,0,0,1,6.16-4,.52.52,0,0,0,0-1,9.44,9.44,0,0,0-1.19-.21c-2.87-.17-3.84,1-3.92,1.07S325.17,128.8,324.45,132Z"/><path class="cls-3" d="M335.28,130.59c.63,0,.63.52,0,.71a12.63,12.63,0,0,0-5.52,4.83.53.53,0,0,1-1-.23c0-.14.1-1,.14-1.2.63-2.81,2-3.42,2.11-3.47S332.05,130.41,335.28,130.59Z"/><path class="cls-3" d="M335.85,135.13c.61-.15.75.32.22.67a12.61,12.61,0,0,0-3.94,6.17.52.52,0,0,1-1,.06,10.13,10.13,0,0,1-.21-1.19c-.19-2.88,1-3.85,1.06-3.93S332.69,135.85,335.85,135.13Z"/><path class="cls-3" d="M340.66,137.82c.62-.14.75.33.22.67a12.56,12.56,0,0,0-4,6.14.53.53,0,0,1-1,0,11.89,11.89,0,0,1-.19-1.19c-.16-2.87,1-3.84,1.09-3.91S337.5,138.51,340.66,137.82Z"/><path class="cls-3" d="M318.84,141.76c-.23.59.2.8.63.33a12.6,12.6,0,0,1,6.73-2.91.52.52,0,0,0,.21-1c-.13-.07-1-.35-1.14-.4-2.81-.63-4,.38-4,.42S320.06,138.76,318.84,141.76Z"/><path class="cls-3" d="M320.28,146.48c-.33.53.06.81.56.43a12.53,12.53,0,0,1,7.13-1.7.52.52,0,0,0,.38-.92,11.46,11.46,0,0,0-1.06-.59c-2.65-1.12-4-.31-4.05-.29S322,143.73,320.28,146.48Z"/><path class="cls-3" d="M329,152.4c-.14.61.33.75.68.23a12.52,12.52,0,0,1,6.16-4,.53.53,0,0,0,.06-1,10,10,0,0,0-1.2-.2c-2.87-.18-3.84,1-3.92,1.07S329.69,149.25,329,152.4Z"/><path class="cls-3" d="M313.15,139.42c-.14.61.32.75.67.22a12.58,12.58,0,0,1,6.17-4,.52.52,0,0,0,.05-1,9.44,9.44,0,0,0-1.19-.21c-2.87-.17-3.85,1-3.92,1.07S313.87,136.26,313.15,139.42Z"/><path class="cls-3" d="M320.83,124.82a3.42,3.42,0,0,1,3.41-2,4.27,4.27,0,0,1,3.36-.73,4,4,0,0,1,5.06-.34l-.71,2.06,3.57-.68s2.5,1.38-.14,4.17,2.43-.48,3.49-.48,2.76.91,1.05,2.76-3,2.2-.89,2,2.15-.65,2.75-.61,2.61,1.48,1,3.13-5,2.59-5,2.59a31.73,31.73,0,0,1,5.5-.08c2.14.26,2.62.21,1.68,1.9a7,7,0,0,1-2.89,2.54s1.3,1.65,2.41,1.28,2.78-.37,1.69,1.59-5.07,2.66-5.07,2.66,4.47.73,4.23,1.63-.1,2.38-1.45,2.78-3.12-.63-3.44-.35,2.65,3.54,1.54,6c-2.68.39-5-3.38-5.34-3.14s.14,2.22-.62,3.41-2.14.63-3.07.61-.4-4.52-.4-4.52-1.77,3.64-4,4.14-1.72-1.11-1.06-2.07-.55-2.67-.55-2.67a6.93,6.93,0,0,1-3.25,2.07c-1.88.44-1.7,0-1.35-2.14A31.13,31.13,0,0,1,324,147s-1.86,3-3.88,4.1-2.86-1.25-2.73-1.85.55-.49,1.35-2.47.12-.81-2.14.31-2.66-.75-2.37-1.77,4.86-5,1.44-3.23-4-1-4-1l1.64-3.25-2.17.12a4,4,0,0,1,1.73-4.77,4.26,4.26,0,0,1,1.63-3,3.42,3.42,0,0,1,2.92-2.71"/></g><g class="cls-2"><path class="cls-3" d="M163.26,10.29a9.35,9.35,0,0,0-.06-1.83L162.81,8a.85.85,0,0,0-1.07-.22l-1.08.58a12,12,0,0,0-3.51.93c-.36.24-.7.48-1,.7a.56.56,0,0,0,.12,1c1.31.54,3.67,1.67,4.32,2.89A3.26,3.26,0,0,0,162,15.19a.82.82,0,0,0,1.21-.7Z"/><path class="cls-3" d="M156.13,15.63c.14.61-.32.75-.67.23a12.51,12.51,0,0,0-6.17-4,.53.53,0,0,1,0-1,10.17,10.17,0,0,1,1.19-.2c2.88-.18,3.85,1,3.93,1.07S155.42,12.48,156.13,15.63Z"/><path class="cls-3" d="M145.31,14.27c-.63,0-.63.52,0,.71a12.46,12.46,0,0,1,5.51,4.82.52.52,0,0,0,1-.22,11,11,0,0,0-.13-1.2c-.63-2.81-2-3.42-2.11-3.48S148.54,14.08,145.31,14.27Z"/><path class="cls-3" d="M144.74,18.8c-.61-.14-.75.32-.23.67a12.59,12.59,0,0,1,4,6.18.52.52,0,0,0,1,.05,9.44,9.44,0,0,0,.21-1.19c.18-2.87-1-3.85-1.06-3.92S147.89,19.53,144.74,18.8Z"/><path class="cls-3" d="M139.92,21.49c-.61-.13-.74.33-.22.68a12.45,12.45,0,0,1,4,6.14.53.53,0,0,0,1,0c0-.14.18-1,.19-1.19.16-2.88-1-3.84-1.1-3.92S143.09,22.19,139.92,21.49Z"/><path class="cls-3" d="M161.75,25.44c.23.58-.2.79-.63.33a12.56,12.56,0,0,0-6.73-2.91.53.53,0,0,1-.21-1c.13-.06.95-.35,1.14-.39,2.81-.64,4,.38,4.05.42S160.53,22.44,161.75,25.44Z"/><path class="cls-3" d="M160.3,30.15c.34.54-.05.82-.56.44a12.55,12.55,0,0,0-7.12-1.71.52.52,0,0,1-.38-.92,11.46,11.46,0,0,1,1.06-.59c2.65-1.11,4-.31,4-.28S158.58,27.41,160.3,30.15Z"/><path class="cls-3" d="M151.61,36.08c.14.61-.32.75-.67.22a12.58,12.58,0,0,0-6.17-4,.52.52,0,0,1-.05-1c.14-.05,1-.19,1.19-.21,2.88-.17,3.85,1,3.93,1.07S150.89,32.92,151.61,36.08Z"/><path class="cls-3" d="M167.44,23.09c.14.61-.32.75-.67.23a12.6,12.6,0,0,0-6.17-4,.53.53,0,0,1,0-1,9.5,9.5,0,0,1,1.19-.2c2.87-.18,3.85,1,3.92,1.07S166.72,19.94,167.44,23.09Z"/><path class="cls-3" d="M159.76,8.49a3.42,3.42,0,0,0-3.41-2A4.24,4.24,0,0,0,153,5.72a4,4,0,0,0-5.06-.35l.71,2.06-3.58-.68s-2.49,1.39.15,4.18-2.43-.49-3.5-.49-2.75.92-1.05,2.77,3,2.19.89,2-2.14-.66-2.74-.62-2.61,1.49-1,3.14,5,2.59,5,2.59a31.73,31.73,0,0,0-5.5-.08c-2.14.26-2.62.21-1.68,1.89a7,7,0,0,0,2.89,2.55s-1.3,1.65-2.41,1.27-2.78-.37-1.69,1.59,5.07,2.66,5.07,2.66-4.48.73-4.23,1.63.1,2.39,1.45,2.79,3.11-.64,3.44-.36-2.66,3.54-1.54,6c2.68.39,5-3.38,5.34-3.15s-.14,2.23.62,3.41,2.14.63,3.07.62.4-4.52.4-4.52,1.77,3.64,4,4.14,1.72-1.12,1.06-2.07.55-2.67.55-2.67a6.93,6.93,0,0,0,3.25,2.07c1.88.44,1.7,0,1.35-2.14a31.36,31.36,0,0,0-1.6-5.26s1.86,3,3.88,4.11,2.86-1.26,2.73-1.85-.55-.49-1.35-2.47-.12-.82,2.14.31,2.66-.75,2.36-1.78-4.85-5-1.43-3.22,4.05-1,4.05-1l-1.65-3.25,2.18.11a4,4,0,0,0-1.73-4.76,4.27,4.27,0,0,0-1.63-3,3.44,3.44,0,0,0-2.92-2.71"/></g><g class="cls-2"><path class="cls-3" d="M323.68,78.42l-.53,15.84a10.24,10.24,0,0,0,7.29,10.08,52.61,52.61,0,0,0,23,1.93l1.69-.27a40.37,40.37,0,0,0,6.4-1.55c7.7-2.64,5.21-6.06,5.21-6.06l.39-18.75s-2,.12-5.16.25c-1.72.06-3.8.13-6.11.18-3.06.08-6.5.11-10.06.08-4.69,0-9.55-.2-13.95-.59A66.8,66.8,0,0,1,323.68,78.42Z"/><polyline class="cls-3" points="361.98 79.88 361.98 79.89 361.53 104.45 361.53 104.46"/><path class="cls-3" d="M333.91,82.45h1.6a.87.87,0,0,1,.89.94c-.16,1.82,0,5.85-.34,6.74s-1.67.56-2.83.26a1.13,1.13,0,0,1-.88-1.18l.41-5.72A1.13,1.13,0,0,1,333.91,82.45Z"/><path class="cls-3" d="M339.81,52.11s1.94,1.17,4.84,3.24a104.19,104.19,0,0,1,8.46,6.77,74.1,74.1,0,0,1,7.75,7.95,45.2,45.2,0,0,1,6.27,9.57l1.37-.48a2.8,2.8,0,0,0,1.88-3,32.1,32.1,0,0,0-2.42-9,24.35,24.35,0,0,0-7.23-9.46,27.43,27.43,0,0,0-10.05-4.94,25.94,25.94,0,0,0-5.66-.92,15,15,0,0,0-5.21.27,16.73,16.73,0,0,0-3.79,1.4,21.77,21.77,0,0,0-5.21,3.85,35,35,0,0,0-5.23,6.6,36,36,0,0,0-4.12,8.65c-.37,2.37-.33,5,0,5.31a7,7,0,0,0,2.22.5"/><path class="cls-3" d="M336,53.51s1.75,1.75,4.22,4.47c2.08,2.31,4.69,5.3,7.21,8.52a79.92,79.92,0,0,1,5.85,8.37,31.86,31.86,0,0,1,2.56,5.2L355.13,106"/><path class="cls-3" d="M330.81,57.36s1.44,2,3.45,4.78,4.44,6.33,6.65,9.71a69.59,69.59,0,0,1,4.89,8.3s3.36-2.48,7.5-5.28c2.43-1.64,5.12-3.38,7.56-4.8,3.15-1.82,5.88-3.1,7.1-2.91"/><path class="cls-3" d="M325.59,64s.83,1.4,1.9,3.48c1.68,3.27,3.92,8.23,4.36,12.12"/><path class="cls-3" d="M321.46,72.61s2.43-2.2,6-5.17c2-1.62,4.3-3.46,6.77-5.3,1.93-1.43,4-2.85,6-4.16,1.48-.95,3-1.85,4.41-2.63a30.45,30.45,0,0,1,6-2.59"/><path class="cls-3" d="M331.85,79.56s4-3.51,9.06-7.71c2.08-1.73,4.33-3.58,6.54-5.35,2-1.56,3.89-3.07,5.66-4.38,3.77-2.8,6.78-4.71,7.62-4.42"/></g><path class="cls-4" d="M115.28,88.63c-2-8.88,1.33-18.91,10.39-19.25,8-.31,14.3,5.92,17.68,12.88,3.93,8.13-2.19,16.93-10.37,19.25C125,103.77,117.28,97.5,115.28,88.63Z"/><path class="cls-4" d="M138,67.2c.45-1.29,6.63-15.5,6.63-15.5"/><path class="cls-4" d="M150.5,99.89c1,1,12.67,11.12,12.67,11.12"/><path class="cls-4" d="M148.6,78.5c1.3-.72,13.9-5.26,13.9-5.26"/><path class="cls-4" d="M166.14,89.27c-1.48-.09-14.81,1.25-14.81,1.25"/><path class="cls-4" d="M110.28,71.93c-1-1-12.67-11.13-12.67-11.13"/><path class="cls-4" d="M113.08,106.79c-.46,1.3-6.64,15.51-6.64,15.51"/><path class="cls-4" d="M105.56,86.68c-1.48-.09-14.81,1.25-14.81,1.25"/><path class="cls-4" d="M94.39,104c1.3-.72,13.9-5.26,13.9-5.26"/><g class="cls-2"><path class="cls-3" d="M136.91,174c.45-1.29,5.37-8.66-.6-18.61-5.74-9.57-11.23-11.83-14.39-12.49-.82-.17-18.6-3.2-19.49-4.31s-4.53,22.68,9.37,35.58S136.91,174,136.91,174Z"/><path class="cls-3" d="M102.43,138.56s-7.77,3,34.48,35.41"/><path class="cls-3" d="M115.67,141.74c.9,4.41.3,15.11.3,15.11s-9.6,3.15-13.37.53"/><path class="cls-3" d="M126.81,144.86c3.19,11.73-2.09,19.62-2.09,19.62s-8.48,5.84-17.06,5.58"/></g><path class="cls-1" d="M182.38,75.8c-.18-.26-2-2.33.76-7.14s6-11,5.11-16.54-3.56-1.47-3.25-21.65,8.21-11.92,8.89-9.74-1.38,19.78-2.26,23.76c-.62,2.82,1.21,6.91,2.41,7.67s3.53-1.13,3.6-3.84-1.42-5.18-1.5-7.59,1.35-24.95,8.8-23.53-.83,15.49-2.18,21.27-2.93,11-.68,9.85,7.22-10.82,8.12-12.25,15.67-22,22.33-14.13S208.28,47.12,204.75,50.5s9.1,1.21,19.17-2.33,11.05,4.36,8.72,6.09-14.13,3.31-23.08,1.81c-4.78-.81-7.8,0-9.58.88a2.21,2.21,0,0,0,0,4,21.81,21.81,0,0,0,6.62,1.62c9.25,1.13,19.47-4.06,25-1.35s4.28,6.46,2.1,7.52S229,73,218.43,70.2s-11-5.56-21.72-6.77-10.08,7.75-9.85,7.75,0,1.88,8.87-.08,9,1.43,9,3.16-2.56,4.06-8.65,4.21-6.46-2.63-8.27-2.63S183.77,77.72,182.38,75.8Z"/><path class="cls-1" d="M74.19,89c.26-.36,2.84-3.25-1-10S64.75,63.66,66,55.89s5-2,4.54-30.23S59.08,9,58.13,12.07s1.93,27.61,3.15,33.17c.87,3.94-1.68,9.65-3.36,10.7s-4.93-1.57-5-5.35,2-7.24,2.09-10.6S53.1,5.16,42.7,7.14s1.16,21.62,3,29.7,4.09,15.32.94,13.75S36.62,35.48,35.36,33.48,13.47,2.83,4.19,13.75,38,48.91,43,53.63s-12.7,1.68-26.77-3.25S.78,56.47,4,58.88,23.76,63.5,36.25,61.4c6.68-1.12,10.89,0,13.37,1.24a3.07,3.07,0,0,1,0,5.52,30.71,30.71,0,0,1-9.25,2.27C27.43,72,13.16,64.76,5.5,68.54s-6,9-2.94,10.49,6.61,6,21.31,2.1,15.32-7.77,30.33-9.45S68.26,82.49,68,82.49s0,2.63-12.39-.1S43,84.38,43,86.8,46.54,92.47,55,92.68,64.06,89,66.58,89,72.25,91.63,74.19,89Z"/><path class="cls-1" d="M177.45,95.31c-.18.26-2,2.33.75,7.14s6,11,5.12,16.54-3.56,1.47-3.25,21.65,8.21,11.92,8.89,9.74-1.39-19.77-2.26-23.76c-.62-2.82,1.21-6.91,2.41-7.66s3.53,1.12,3.6,3.83-1.42,5.19-1.5,7.59,1.35,25,8.8,23.53-.83-15.48-2.18-21.27-2.94-11-.68-9.85,7.22,10.83,8.12,12.25,15.67,22,22.33,14.14S203.35,124,199.82,120.61s9.09-1.2,19.17,2.33,11-4.36,8.72-6.09-14.13-3.31-23.08-1.8c-4.78.8-7.8,0-9.58-.89a2.21,2.21,0,0,1,0-4,22.11,22.11,0,0,1,6.62-1.62c9.24-1.13,19.47,4.06,25,1.35s4.28-6.46,2.1-7.51-4.73-4.29-15.26-1.51-11,5.57-21.73,6.77-10.07-7.74-9.84-7.74,0-1.88,8.87.07,9-1.43,9-3.16-2.56-4.06-8.65-4.21-6.46,2.63-8.27,2.63S178.84,93.4,177.45,95.31Z"/><path class="cls-1" d="M88.52,120.23c.18.26,2,2.33-.76,7.14s-6,11-5.11,16.54,3.56,1.47,3.25,21.65S77.69,177.48,77,175.3s1.38-19.77,2.26-23.76c.62-2.82-1.21-6.91-2.41-7.67s-3.53,1.13-3.61,3.84,1.43,5.19,1.51,7.59S73.4,180.25,66,178.83s.83-15.48,2.18-21.27,2.93-11,.68-9.85S61.6,158.53,60.7,160,45,181.91,38.37,174.1s24.25-25.19,27.78-28.57-9.1-1.2-19.17,2.33-11-4.36-8.72-6.09,14.13-3.31,23.08-1.8c4.78.8,7.8,0,9.58-.89a2.21,2.21,0,0,0,0-4,21.81,21.81,0,0,0-6.62-1.62c-9.25-1.13-19.47,4.06-25,1.35s-4.28-6.46-2.1-7.51,4.73-4.29,15.26-1.51,11,5.56,21.72,6.77,10.08-7.75,9.85-7.75,0-1.87-8.87.08-9-1.43-9-3.16,2.56-4.06,8.65-4.21,6.46,2.63,8.27,2.63S87.12,118.31,88.52,120.23Z"/><path class="cls-1" d="M19.84,115.34c-.06-.12-3.14,10.38-4,11.72-1.36,2.13-6.25-2.35-7.58-4.48S15.81,111,15.81,111s.24-2-5.76-2.55c0,0-4.66-.59,1.44-3.6s7.34-4.39,12.47-7.3c4.18-2.37,1.26,15,0,21.51a.79.79,0,0,1-1.4.24A22.09,22.09,0,0,1,19.84,115.34Z"/><g class="cls-2"><path class="cls-3" d="M465.89,102.21a7.19,7.19,0,0,0,.46-1.27l-.13-.44a.61.61,0,0,0-.67-.44l-.9.09a8.63,8.63,0,0,0-2.65-.33c-.32.06-.62.13-.87.2a.41.41,0,0,0-.18.69c.74.74,2,2.16,2.15,3.18a2.44,2.44,0,0,0,.53,1.31.6.6,0,0,0,1-.15Z"/><path class="cls-3" d="M459.54,103.89c-.08.45-.43.42-.52,0a9.33,9.33,0,0,0-3.12-4.41.38.38,0,0,1,.24-.69,6.23,6.23,0,0,1,.87.19c2,.67,2.35,1.75,2.38,1.81S459.92,101.53,459.54,103.89Z"/><path class="cls-3" d="M452.52,100c-.44-.15-.57.17-.22.47a9.18,9.18,0,0,1,2.43,4.83.39.39,0,0,0,.73.11,8.12,8.12,0,0,0,.24-.86c.35-2.09-.45-2.9-.48-3S454.78,100.72,452.52,100Z"/><path class="cls-3" d="M450.88,102.89c-.38-.26-.61,0-.34.4a9.37,9.37,0,0,1,1,5.31.38.38,0,0,0,.66.31,7.45,7.45,0,0,0,.47-.75c.93-1.91.39-2.91.37-3S452.83,104.26,450.88,102.89Z"/><path class="cls-3" d="M446.84,103.4c-.38-.26-.6,0-.34.4a9.27,9.27,0,0,1,1,5.3.39.39,0,0,0,.67.3,6.64,6.64,0,0,0,.46-.76c.9-1.92.35-2.91.34-3S448.81,104.75,446.84,103.4Z"/><path class="cls-3" d="M460.65,112.14c0,.46-.35.48-.52,0a9.21,9.21,0,0,0-3.79-3.85.39.39,0,0,1,.13-.72,6.93,6.93,0,0,1,.89,0c2.09.34,2.6,1.36,2.64,1.41S460.65,109.75,460.65,112.14Z"/><path class="cls-3" d="M458.36,115c.08.46-.26.54-.5.14a9.25,9.25,0,0,0-4.4-3.14.39.39,0,0,1,0-.73,7.55,7.55,0,0,1,.88-.11c2.13,0,2.8.88,2.85.93S458,112.61,458.36,115Z"/><path class="cls-3" d="M450.78,116.6c-.07.45-.42.42-.52,0a9.23,9.23,0,0,0-3.11-4.41.38.38,0,0,1,.24-.69,6.55,6.55,0,0,1,.87.19c2,.67,2.35,1.76,2.38,1.81S451.17,114.24,450.78,116.6Z"/><path class="cls-3" d="M465.19,112.11c-.07.46-.43.43-.52,0a9.28,9.28,0,0,0-3.12-4.41.39.39,0,0,1,.24-.7c.11,0,.74.15.87.19,2,.68,2.35,1.76,2.39,1.82S465.57,109.76,465.19,112.11Z"/><path class="cls-3" d="M464,100a2.51,2.51,0,0,0-1.76-2.34,3.11,3.11,0,0,0-2.09-1.43,2.94,2.94,0,0,0-3.37-1.63l-.08,1.6-2.25-1.46s-2.09.26-1.06,2.9-1.53-1-2.26-1.3-2.13-.14-1.48,1.6,1.45,2.33.06,1.59-1.28-1.05-1.7-1.19-2.19.29-1.57,1.86a9.86,9.86,0,0,0,2.71,3.16,22.79,22.79,0,0,0-3.73-1.57c-1.53-.42-1.85-.59-1.67.82a5.18,5.18,0,0,0,1.27,2.55s-1.35.76-2,.2-1.8-1-1.6.61,2.73,3.23,2.73,3.23-3.26-.75-3.34-.06-.59,1.65.21,2.3,2.31.43,2.45.71-2.79,1.68-2.71,3.67c1.72,1,4.34-.92,4.52-.66s-.72,1.48-.53,2.5,1.29,1,1.94,1.27,1.52-3,1.52-3,.2,3,1.55,3.93,1.49-.29,1.3-1.12,1.12-1.67,1.12-1.67a5.14,5.14,0,0,0,1.65,2.31c1.16.82,1.16.47,1.51-1.09a22.67,22.67,0,0,0,.36-4,9.87,9.87,0,0,0,1.52,3.88c1.09,1.29,2.3-.07,2.37-.51s-.24-.48-.24-2.06.15-.59,1.38.8,2,.23,2.11-.55-1.93-4.75-.09-2.6,3.05.42,3.05.42l-.22-2.67,1.45.68a2.94,2.94,0,0,0,.14-3.74,3.13,3.13,0,0,0-.28-2.51,2.52,2.52,0,0,0-1.24-2.66"/></g></svg>