<svg width="110" height="83" viewBox="0 0 110 83" fill="none" xmlns="http://www.w3.org/2000/svg">
<path d="M95.5954 29.9177L100.592 20.9416L106.993 27.6939L104.886 43.2405C104.772 44.0694 104.396 44.7972 103.841 45.2622L95.0076 52.7828" fill="#2F698D"/>
<path d="M95.5954 29.9177L100.592 20.9416L106.993 27.6939L104.886 43.2405C104.772 44.0694 104.396 44.7972 103.841 45.2622L95.0076 52.7828" stroke="#4885AB" stroke-width="3.93912" stroke-miterlimit="10"/>
<path d="M72.099 14.6286L86.8272 8.52307" stroke="#2F698D" stroke-width="5.25216" stroke-miterlimit="10"/>
<path d="M96.575 11.8354L96.6566 52.4303C96.6403 53.7849 95.8728 54.8968 94.8931 54.917L73.0785 59.5466L72.9315 58.2123C72.9642 58.2123 73.0132 58.1719 73.0458 58.1112L94.5502 14.5242L80.4752 14.8275L89.4068 5.5076L96.575 11.8354Z" fill="#3679A3"/>
<path d="M94.5502 14.5329L73.0458 58.1199C73.0131 58.1805 72.9804 58.221 72.9315 58.221C72.8498 58.2412 72.8172 58.1805 72.7845 58.0795L72.8171 58.039L69.5352 15.8469L78.4994 16.9184L80.4751 14.8563L94.5502 14.5329Z" fill="#2F698D"/>
<path d="M80.4589 14.8362L78.4995 16.9122L74.3358 14.9974L80.4589 14.8362Z" fill="#2F698D"/>
<path d="M78.4996 16.912L69.5354 15.8467L69.519 15.7864L78.4996 16.912Z" fill="#2F698D"/>
<path d="M78.4995 16.9126L69.519 15.7839L69.47 15.0986L74.3358 14.9979L78.4995 16.9126Z" fill="#2F698D"/>
<path d="M74.3357 14.9908L69.4699 15.0916L69.2739 12.6527L74.3357 14.9908Z" fill="#2F698D"/>
<path d="M72.9313 58.221L73.0783 59.5553L57.1092 62.9315C55.3131 63.0124 50.9534 61.0109 48.9777 61.3142L50.4146 59.7373L42.3973 19.3849L46.6917 12.9358L61.3545 14.7755L61.8117 15.2809L63.7058 15.4225C62.8404 15.847 62.3179 17.2217 62.6608 18.5358L72.8007 58.0795L72.817 58.0997C72.817 58.1806 72.866 58.2412 72.9313 58.221Z" fill="#2F698D"/>
<path d="M69.535 15.8469L72.8333 58.0593L72.8007 58.0998L72.7844 58.0795L62.6445 18.5155C62.3016 17.2014 62.8241 15.8267 63.6895 15.4022L69.535 15.8469Z" fill="#3679A3"/>
<path d="M69.5189 15.7798V15.8397L63.6733 15.4199C63.853 15.28 64.0652 15.22 64.3101 15.22L64.8326 15.2L69.5189 15.7798Z" fill="#2F698D"/>
<path d="M69.4697 15.099L69.5187 15.7787L64.8488 15.179L69.4697 15.099Z" fill="#2F698D"/>
<path d="M69.274 12.646L69.47 15.0922L64.8491 15.173L61.3385 14.7485L52.1293 4.74127L69.274 12.646Z" fill="#2F698D"/>
<path d="M61.3383 14.7484L46.6754 12.9087L52.1291 4.74127L61.3383 14.7484Z" fill="#3679A3"/>
<path d="M52.1293 4.74127L46.6756 12.9087L42.9528 12.4438L52.1293 4.74127Z" fill="#2F698D"/>
<path d="M42.3977 19.3647L50.4149 59.717L48.978 61.2939C48.88 61.3141 48.782 61.3546 48.7167 61.3546L38.3319 64.0232L38.2013 63.1538L34.903 20.9214L42.3977 19.3647Z" fill="#3679A3"/>
<path d="M46.6753 12.9156L42.3973 19.3647L34.9026 20.9214L34.772 19.3243L42.9525 12.4506L46.6753 12.9156Z" fill="#3679A3"/>
<path d="M42.9528 12.4505L34.7723 19.3242L34.1519 11.3588L42.9528 12.4505Z" fill="#2F698D"/>
<path d="M38.2013 63.1741L38.3319 64.0434L10.4268 71.2203C10.1003 71.3214 9.4308 71.4022 8.61438 71.4022L25.7265 20.6585L34.903 20.9213L38.2013 63.1741Z" fill="#2F698D"/>
<path d="M34.7721 19.3184L34.9027 20.9155L25.7262 20.6527L14.0188 8.82593L34.7721 19.3184Z" fill="#3679A3"/>
<path d="M34.1516 11.353L34.7721 19.3184L14.0188 8.82593L34.1516 11.353Z" fill="#2F698D"/>
<path d="M25.7264 20.6527L8.61432 71.4166C6.8182 71.457 4.43426 71.1942 4.35262 70.1632L3.43823 26.6368L14.019 8.82593L25.7264 20.6527Z" fill="#3679A3"/>
<path d="M69.2742 12.6445L68.6211 4.17368" stroke="#4885AB" stroke-width="5.25216" stroke-miterlimit="10"/>
<path d="M69.274 12.6527L69.47 15.0915" stroke="#4885AB" stroke-width="5.25216" stroke-miterlimit="10"/>
<path d="M69.4701 15.099L69.5191 15.7787" stroke="#4885AB" stroke-width="5.25216" stroke-miterlimit="10"/>
<path d="M69.5192 15.7864L69.5355 15.8436" stroke="#4885AB" stroke-width="5.25216" stroke-miterlimit="10"/>
<path d="M69.5355 15.8402L78.4997 16.9117L80.4754 14.8496L89.407 5.52972L96.5752 11.8373L96.6568 52.4322C96.6405 53.7868 95.8731 54.8987 94.8934 54.9189L73.0787 59.5485L57.1096 62.9247C55.3135 63.0055 50.9538 61.0041 48.9781 61.3073C48.8801 61.3275 48.7821 61.368 48.7168 61.368L38.332 64.0366L10.4269 71.2135C10.1003 71.3145 9.43085 71.3954 8.61444 71.3954C6.81832 71.4358 4.43438 71.173 4.35274 70.142L3.43835 26.6359L14.0191 8.82503L25.7265 20.6517L34.9031 20.9146L42.3978 19.3579L46.6921 12.9088L52.1458 4.74127L61.355 14.7687L61.8122 15.2741L63.7062 15.4156L69.5355 15.8402Z" stroke="#4885AB" stroke-width="5.25216" stroke-miterlimit="10"/>
<path d="M69.5353 15.847L72.8336 58.0592" stroke="#4885AB" stroke-width="5.25216" stroke-miterlimit="10"/>
<path d="M38.2012 63.174L34.9029 20.9213L34.7723 19.3242L34.1518 11.3588L33.5803 4" stroke="#4885AB" stroke-width="5.25216" stroke-miterlimit="10"/>
<path d="M13.6598 40.5922L7.96126 40.9965L7.79797 27.33L14.2477 24.5199L13.6598 40.5922Z" stroke="#DBB75C" stroke-width="2.62608" stroke-miterlimit="10"/>
<path d="M87.0558 11.5812L92.1992 13.4412L92.1828 25.7733L86.7618 22.9834L87.0558 11.5812Z" stroke="#DBB75C" stroke-width="2.62608" stroke-miterlimit="10"/>
<path d="M101.98 36.2455L104.233 33.5769L105.033 27.4715L101.98 28.8867V36.2455Z" stroke="#DBB75C" stroke-width="0.984781" stroke-miterlimit="10"/>
<path d="M52.0316 19.7083L58.1221 21.4268L59.6243 33.8195L54.1706 35.6592L52.0316 19.7083Z" stroke="#DBB75C" stroke-width="2.62608" stroke-miterlimit="10"/>
</svg>
