<svg width="531" height="124" viewBox="0 0 531 124" fill="none" xmlns="http://www.w3.org/2000/svg">
<path d="M177.482 45.8313L186.789 32.3827L198.712 42.4995L194.788 65.7923C194.575 67.0342 193.876 68.1246 192.841 68.8213L176.387 80.089" fill="#2F698D"/>
<path d="M177.482 45.8313L186.789 32.3827L198.712 42.4995L194.788 65.7923C194.575 67.0342 193.876 68.1246 192.841 68.8213L176.387 80.089" stroke="#4885AB" stroke-width="8.41463" stroke-miterlimit="10"/>
<path d="M133.714 22.9322L161.148 13.7847" stroke="#2F698D" stroke-width="11.2195" stroke-miterlimit="10"/>
<path d="M179.306 18.7523L179.458 79.5741C179.428 81.6035 177.998 83.2695 176.173 83.2998L135.538 90.2361L135.265 88.237C135.325 88.237 135.417 88.1764 135.478 88.0855L175.535 22.7808L149.317 23.2352L165.954 9.27161L179.306 18.7523Z" fill="#3679A3"/>
<path d="M175.535 22.7808L135.477 88.0855C135.417 88.1763 135.356 88.2369 135.264 88.2369C135.112 88.2672 135.052 88.1763 134.991 88.0249L135.052 87.9643L128.938 24.7496L145.636 26.355L149.316 23.2654L175.535 22.7808Z" fill="#2F698D"/>
<path d="M149.286 23.235L145.636 26.3548L137.88 23.4773L149.286 23.235Z" fill="#2F698D"/>
<path d="M145.636 26.355L128.938 24.7497L128.908 24.6588L145.636 26.355Z" fill="#2F698D"/>
<path d="M145.636 26.3549L128.907 24.6587L128.816 23.6289L137.88 23.4774L145.636 26.3549Z" fill="#2F698D"/>
<path d="M137.88 23.4774L128.816 23.6288L128.451 19.9637L137.88 23.4774Z" fill="#2F698D"/>
<path d="M135.264 88.2371L135.538 90.2362L105.792 95.2946C102.446 95.4158 94.3252 92.4171 90.6449 92.8714L93.3215 90.5088L78.3875 30.0505L86.3868 20.3881L113.7 23.1444L114.552 23.9017L118.08 24.1137C116.468 24.7498 115.494 26.8095 116.133 28.7783L135.021 88.0251L135.052 88.0554C135.052 88.1765 135.143 88.2674 135.264 88.2371Z" fill="#2F698D"/>
<path d="M128.938 24.7496L135.082 87.9946L135.021 88.0552L134.991 88.0249L116.103 28.7479C115.464 26.779 116.437 24.7193 118.049 24.0833L128.938 24.7496Z" fill="#3679A3"/>
<path d="M128.908 24.6589V24.7498L118.019 24.1137C118.354 23.9017 118.749 23.8108 119.205 23.8108L120.178 23.7805L128.908 24.6589Z" fill="#2F698D"/>
<path d="M128.816 23.629L128.908 24.6589L120.209 23.7502L128.816 23.629Z" fill="#2F698D"/>
<path d="M128.451 19.964L128.816 23.6291L120.209 23.7502L113.669 23.1142L96.515 8.12073L128.451 19.964Z" fill="#2F698D"/>
<path d="M113.669 23.1142L86.3564 20.3578L96.5151 8.12073L113.669 23.1142Z" fill="#3679A3"/>
<path d="M96.5152 8.12073L86.3564 20.3578L79.4217 19.6611L96.5152 8.12073Z" fill="#2F698D"/>
<path d="M78.3877 30.0201L93.3217 90.4785L90.6451 92.8411C90.4626 92.8714 90.2801 92.9319 90.1585 92.9319L70.8142 96.9302L70.5709 95.6277L64.427 32.3525L78.3877 30.0201Z" fill="#3679A3"/>
<path d="M86.3563 20.3578L78.3874 30.0202L64.4267 32.3525L64.1834 29.9596L79.4216 19.6611L86.3563 20.3578Z" fill="#3679A3"/>
<path d="M79.4219 19.6612L64.1838 29.9597L63.028 18.0255L79.4219 19.6612Z" fill="#2F698D"/>
<path d="M70.5709 95.658L70.8142 96.9604L18.8342 107.713C18.2259 107.865 16.9789 107.986 15.4581 107.986L47.3335 31.9586L64.427 32.3524L70.5709 95.658Z" fill="#2F698D"/>
<path d="M64.1836 29.9594L64.4269 32.3523L47.3334 31.9585L25.5255 14.239L64.1836 29.9594Z" fill="#3679A3"/>
<path d="M63.0278 18.0252L64.1836 29.9594L25.5255 14.239L63.0278 18.0252Z" fill="#2F698D"/>
<path d="M47.3335 31.9585L15.458 108.016C12.1123 108.077 7.67169 107.683 7.51961 106.138L5.81635 40.9243L25.5256 14.239L47.3335 31.9585Z" fill="#3679A3"/>
<path d="M128.452 19.9642L127.235 7.27283" stroke="#4885AB" stroke-width="11.2195" stroke-miterlimit="10"/>
<path d="M128.451 19.964L128.816 23.629" stroke="#4885AB" stroke-width="11.2195" stroke-miterlimit="10"/>
<path d="M128.816 23.629L128.908 24.6589" stroke="#4885AB" stroke-width="11.2195" stroke-miterlimit="10"/>
<path d="M128.908 24.6589L128.938 24.749" stroke="#4885AB" stroke-width="11.2195" stroke-miterlimit="10"/>
<path d="M128.938 24.7498L145.636 26.3552L149.317 23.2656L165.954 9.30203L179.306 18.7524L179.458 79.5742C179.428 81.6037 177.998 83.2696 176.173 83.2999L135.538 90.2362L105.792 95.2946C102.446 95.4158 94.3254 92.4171 90.6451 92.8714C90.4626 92.9017 90.2802 92.9623 90.1585 92.9623L70.8143 96.9606L18.8342 107.713C18.2259 107.865 16.9789 107.986 15.4581 107.986C12.1124 108.047 7.67175 107.653 7.51967 106.108L5.81641 40.9245L25.5256 14.2393L47.3335 31.9588L64.427 32.3525L78.3877 30.0202L86.387 20.3578L96.5457 8.12073L113.7 23.1444L114.552 23.9017L118.08 24.1137L128.938 24.7498Z" stroke="#4885AB" stroke-width="11.2195" stroke-miterlimit="10"/>
<path d="M128.938 24.7496L135.082 87.9946" stroke="#4885AB" stroke-width="11.2195" stroke-miterlimit="10"/>
<path d="M70.5708 95.6581L64.4269 32.3525L64.1836 29.9596L63.0278 18.0255L61.9633 7" stroke="#4885AB" stroke-width="11.2195" stroke-miterlimit="10"/>
<path d="M24.8567 61.8244L14.2417 62.4302L13.9375 41.9543L25.9516 37.744L24.8567 61.8244Z" stroke="#DBB75C" stroke-width="5.60976" stroke-miterlimit="10"/>
<path d="M161.574 18.3586L171.155 21.1453L171.125 39.622L161.027 35.4421L161.574 18.3586Z" stroke="#DBB75C" stroke-width="5.60976" stroke-miterlimit="10"/>
<path d="M189.374 55.312L193.571 51.3138L195.061 42.1663L189.374 44.2865V55.312Z" stroke="#DBB75C" stroke-width="2.10366" stroke-miterlimit="10"/>
<path d="M96.3329 30.5349L107.678 33.1095L110.476 51.6772L100.317 54.4335L96.3329 30.5349Z" stroke="#DBB75C" stroke-width="5.60976" stroke-miterlimit="10"/>
<path d="M233.133 20.6001H233.194C233.316 20.6001 233.805 20.6305 234.66 20.661C238.052 20.9348 241.321 21.2086 244.407 21.5129L248.226 24.7382C249.632 32.5276 250.273 36.8483 250.151 37.6394C249.051 38.8869 247.921 40.1649 246.821 41.4428C245.293 43.1163 244.01 44.09 243.002 44.3334C245.11 47.9543 249.051 53.2791 254.826 60.3382L249.723 61.7683C247.707 59.9426 245.293 57.4476 242.482 54.2527C240.221 51.6056 237.96 48.8975 235.669 46.2199L231.238 47.1936C231.024 52.8531 231.024 56.8999 231.238 59.3341L222.989 60.1861C223.203 57.0521 223.356 52.275 223.447 45.8852L223.508 41.0473L223.081 21.2999L233.072 20.7522L233.133 20.6001ZM241.168 25.651L230.413 26.3204C230.383 27.7201 230.566 30.4586 230.994 34.4445C231.391 37.8828 231.452 40.5604 231.208 42.4774C234.172 41.8384 236.738 40.8647 238.907 39.5563L242.513 36.4223L241.168 25.651Z" fill="#B16A72"/>
<path d="M285.471 51.1493C284.829 52.6706 284.188 53.979 283.546 55.1048C281.957 57.8433 280.43 59.4255 278.963 59.9123C277.802 60.2775 275.48 60.46 271.966 60.46C267.903 60.46 265.214 60.1253 263.9 59.4559C262.861 58.9082 261.731 56.9913 260.509 53.6443C259.439 50.6016 258.889 48.4717 258.889 47.2242C258.92 44.8508 258.767 41.2604 258.431 36.4224C258.095 31.6758 257.942 28.0549 258.003 25.5599L265.611 25.0122C265.458 27.4464 265.458 32.1626 265.55 39.2218C265.611 46.3418 265.764 50.3886 266.008 51.3623C266.283 52.7011 266.65 53.6443 267.047 54.192C267.903 55.3482 269.4 55.9568 271.539 56.0481C272.516 56.0785 273.494 55.9568 274.502 55.6829C275.663 55.3787 276.305 55.0135 276.488 54.618C277.649 52.1838 278.383 49.5366 278.719 46.646C278.963 44.9117 279.116 42.3253 279.177 38.8262C279.177 37.5483 279.299 35.2662 279.544 32.0105C279.757 29.3024 279.819 27.0508 279.757 25.1948L288.16 24.6775L285.471 51.1493Z" fill="#B16A72"/>
<path d="M316.941 57.752C316.116 58.5127 314.558 59.1517 312.236 59.6689C310.372 60.0645 308.6 60.2775 306.981 60.2775C305.3 60.2775 301.817 60.2166 296.501 60.0645C296.257 55.3483 295.951 48.4717 295.554 39.4043C295.493 36.2703 295.309 31.4932 295.034 25.0426L308.386 24.2819C308.906 24.2515 310.556 24.5254 313.275 25.1035C316.575 25.8033 318.652 26.5336 319.538 27.2638C320.241 28.2984 320.944 29.3633 321.616 30.3978C322.38 31.8888 322.747 33.684 322.716 35.8443C322.533 47.0416 320.608 54.3137 316.941 57.752ZM314.955 32.2235L310.158 29.5459L303.437 29.7893L303.223 34.6881C303.131 37.2744 303.131 44.4553 303.223 56.2307L306.492 56.2915L313.153 54.0095C314.619 49.9322 315.383 43.8772 315.505 35.8748C315.353 34.6577 315.169 33.4406 314.955 32.2235Z" fill="#B16A72"/>
<path d="M351.589 57.9954C350.764 58.6343 348.442 59.4559 344.622 60.4296C343.217 60.3991 341.995 60.3383 340.925 60.2166C338.39 60.0036 336.862 59.6993 336.342 59.2429C333.898 57.1434 332.218 55.0439 331.301 52.914C330.629 51.3622 329.957 48.5933 329.285 44.5769C328.857 38.461 328.704 34.901 328.826 33.8361C329.56 31.5844 330.354 29.8501 331.179 28.633C332.37 26.9595 333.898 25.8032 335.823 25.1947C338.42 24.3427 341.17 23.9167 344.042 23.9167C348.625 23.9167 352.078 24.7383 354.4 26.3509C355.897 27.355 356.936 28.7547 357.516 30.4891C358.066 32.0408 358.341 34.1708 358.341 36.9092C358.341 38.3697 358.249 40.5301 358.097 43.3902C358.005 45.0029 357.272 47.4979 355.897 50.8754C354.369 54.6788 352.933 57.0217 351.589 57.9954ZM348.869 30.4282C348.258 30.1239 345.57 29.8197 340.834 29.4545C340.039 29.6371 339.092 30.2152 337.992 31.2497C336.892 32.2843 336.342 33.1362 336.312 33.8665C336.251 36.1181 336.159 38.3697 336.098 40.5909C336.037 43.7858 336.067 46.0679 336.251 47.4067C336.556 49.6279 337.595 51.7578 339.337 53.766C339.826 54.3441 341.475 54.6179 344.286 54.6179C345.875 54.6179 347.067 54.4658 347.892 54.1615C348.442 53.9181 349.144 52.0012 349.969 48.3499C350.825 44.4552 351.283 40.8952 351.283 37.7003C351.283 33.5926 350.458 31.1585 348.869 30.4282Z" fill="#B16A72"/>
<path d="M366.316 60.7945C366.377 60.399 366.469 57.4171 366.53 51.9097C366.591 48.3802 366.53 43.8769 366.316 38.4609C366.041 30.2455 365.888 25.7726 365.888 25.012L375.207 24.3121C374.932 25.9856 374.596 28.8154 374.229 32.8014C373.802 39.2824 373.435 46.7067 373.099 55.135L386.084 55.9566L385.412 59.4557L366.316 60.7945Z" fill="#B16A72"/>
<path d="M410.619 44.668L398.275 45.8243L397.969 59.8208L391.828 60.5207C391.737 55.5002 391.339 47.4065 390.667 36.2092L390.453 27.4766L391.645 25.4988L412.452 24.8903L410.771 28.572L399.925 30.0933L398.489 31.1887C398.428 32.6492 398.336 34.0793 398.244 35.5398C398.153 37.761 398.153 39.5562 398.244 40.9559L411.321 41.0167L410.619 44.668Z" fill="#B16A72"/>
<path d="M239.243 92.0435H239.213C239.029 92.439 238.846 92.8346 238.632 93.2605C238.449 93.6865 238.174 93.9604 237.838 94.0517C235.638 94.7819 232.827 95.1166 229.435 95.1166C227.083 95.1166 224.7 94.9645 222.286 94.6298L221.919 91.7392C222.897 91.8913 223.966 91.9826 225.158 91.9826C228.885 91.9826 232.002 91.2523 234.507 89.7614C234.721 89.6397 234.813 89.1833 234.813 88.4226C234.813 87.3881 234.629 85.9276 234.263 84.0715C233.957 83.7672 231.941 82.824 228.213 81.2418C224.73 79.7508 222.775 78.6859 222.377 78.0165C221.919 77.2558 221.705 75.0954 221.705 71.5354C221.705 69.4055 221.858 68.158 222.133 67.7929C222.683 67.093 223.111 66.4845 223.416 65.9672C223.844 65.45 225.463 65.2065 228.335 65.2065C231.391 65.2065 235.057 65.4195 239.365 65.8759L238.54 68.9795C237.96 69.01 237.196 68.9795 236.249 68.9491C234.996 68.8578 234.232 68.8274 233.927 68.8274C230.933 68.7665 228.916 69.01 227.908 69.5577L227.205 74.9129C227.449 75.278 228.488 75.7953 230.26 76.5559C231.391 77.0124 232.521 77.4688 233.652 77.9252C237.593 79.5074 239.854 80.8766 240.496 82.0329C240.71 82.4284 240.801 83.037 240.801 83.8585C240.801 86.3231 240.251 89.0616 239.151 92.0739L239.243 92.0435Z" fill="#2F698D"/>
<path d="M261.242 71.3527L255.039 72.4481L254.336 73.4218C254.245 78.1989 254.031 85.2884 253.725 94.6905L249.356 95.5729C249.417 94.6905 249.448 93.7472 249.448 92.7736C249.448 91.4043 249.356 89.1831 249.203 86.1404C249.051 83.2498 248.99 81.0895 248.99 79.629C249.02 78.351 248.837 76.1907 248.47 73.2088L247.401 72.6002L241.932 71.6874L242.39 69.0402L247.554 68.8577C250.059 68.7664 254.459 68.6447 260.722 68.4926L261.242 71.3527Z" fill="#2F698D"/>
<path d="M279.421 83.463L270.469 84.2237C270.499 85.4408 270.53 86.5057 270.591 87.449C270.744 89.6702 270.988 90.9481 271.294 91.2828C271.722 91.7392 274.869 91.8914 280.796 91.7392L280.338 94.3256C274.746 94.8732 270.683 95.1471 268.177 95.1471C266.833 95.1471 266.069 95.0558 265.947 94.8732C265.519 94.2038 265.214 91.0394 265 85.3191L264.755 78.7772C264.511 72.8438 264.694 69.6185 265.275 69.0708C265.855 68.5232 271.049 68.1885 280.827 68.0972L280.154 70.9573C278.566 71.0486 277.16 71.1399 275.968 71.2616C273.127 71.5355 271.508 71.9006 271.11 72.3266C270.683 72.8438 270.469 75.3389 270.499 79.8726L271.08 80.6028L279.727 80.9071L279.421 83.463Z" fill="#2F698D"/>
<path d="M291.276 94.8124L287.09 95.1471L285.96 75.3084C285.899 73.9088 285.807 71.7484 285.654 68.8274L292.407 68.2189C292.162 72.6613 291.887 77.1037 291.673 81.546C291.368 86.7187 291.246 91.1307 291.276 94.8124Z" fill="#2F698D"/>
<path d="M318.866 94.1127L314.711 95.1473C311.808 86.5667 308.661 79.7815 305.209 74.8218L303.895 75.4303C303.528 80.3596 303.314 86.8406 303.284 94.8734L299.312 95.2994L298.304 74.2741L299.19 68.8885L306.584 68.4625C309.028 72.5093 310.739 75.3695 311.655 77.043C313.458 80.3596 314.741 83.2197 315.536 85.5931L315.139 70.8054L315.536 68.3103L321.219 68.1582C320.791 71.6573 320.455 74.9131 320.149 77.9254C319.355 85.1062 318.927 90.4919 318.866 94.1127Z" fill="#2F698D"/>
<path d="M341.262 83.463L332.31 84.2237C332.34 85.4408 332.371 86.5057 332.432 87.449C332.585 89.6702 332.829 90.9481 333.135 91.2828C333.562 91.7392 336.709 91.8914 342.637 91.7392L342.178 94.3256C336.587 94.8732 332.523 95.1471 330.018 95.1471C328.674 95.1471 327.91 95.0558 327.788 94.8732C327.36 94.2038 327.054 91.0394 326.84 85.3191L326.596 78.7772C326.352 72.8438 326.535 69.6185 327.115 69.0708C327.696 68.5232 332.89 68.1885 342.637 68.0972L341.965 70.9573C340.376 71.0486 338.97 71.1399 337.779 71.2616C334.937 71.5355 333.318 71.9006 332.921 72.3266C332.462 72.8438 332.279 75.3389 332.279 79.8726L332.86 80.6028L341.506 80.9071L341.262 83.463Z" fill="#2F698D"/>
<path d="M365.247 96.1208C363.78 94.782 360.633 91.2828 355.745 85.6233L352.903 86.2319C352.781 90.0657 352.781 92.8042 352.903 94.4168L347.159 95.0254C347.312 92.9259 347.434 89.6702 347.526 85.2886L347.556 82.0025L347.251 68.6145L354.125 68.1885C356.325 68.371 358.892 68.584 361.733 68.8275L364.361 71.0182C365.338 76.4343 365.766 79.3553 365.644 79.8117C364.849 80.7245 364.086 81.6069 363.261 82.4893C362.283 83.5543 361.519 84.1628 360.908 84.315C362.314 86.7187 365.002 90.3092 368.913 95.0862L365.247 96.1208ZM359.472 71.7485L352.353 72.1745C352.567 75.5215 352.75 79.0815 352.934 82.9153C354.797 82.5198 356.478 81.8808 357.975 80.968L360.328 78.8685L359.472 71.7485Z" fill="#2F698D"/>
<path d="M376.429 72.144L375.818 76.8298C376.001 77.1037 377.926 77.9861 381.562 79.477C385.137 80.9071 387.184 82.1546 387.734 83.2196C387.917 83.5847 388.009 84.1324 388.009 84.8931C388.009 87.1143 387.52 89.5789 386.573 92.3173C386.603 92.3173 386.176 92.9259 385.32 94.1734C383.212 94.8124 380.584 95.1167 377.468 95.1167C375.298 95.1167 373.221 94.9645 371.174 94.6907L370.807 91.9218C371.724 92.0739 372.732 92.1652 373.862 92.1652C377.193 92.1652 379.973 91.4958 382.173 90.157C382.387 90.0657 382.479 89.7006 382.479 89.0616C382.479 88.1488 382.295 86.8404 381.929 85.1669C381.654 84.9235 379.881 84.0715 376.521 82.6719C373.343 81.3026 371.571 80.329 371.235 79.7204C370.807 79.051 370.593 77.0732 370.593 73.8479C370.593 71.931 370.715 70.8052 370.99 70.4401L372.243 68.8579C372.61 68.3406 374.168 68.0972 376.887 68.0972C379.515 68.0972 382.784 68.3102 386.695 68.7057L385.901 71.6572C385.809 71.6572 385.228 71.6267 384.19 71.5963C382.906 71.5355 381.867 71.505 381.073 71.505C378.782 71.505 377.223 71.718 376.429 72.144Z" fill="#2F698D"/>
<path d="M410.863 96.0602C409.671 93.2608 408.663 91.1614 407.807 89.7921C406.494 87.6318 404.691 85.3802 402.399 83.0068L398.183 83.1285C398.244 83.5241 398.244 85.2889 398.183 88.3925C398.122 91.5873 398 93.7477 397.908 94.8126L393.142 95.0561L391.92 68.7364L398.458 68.4626L398.183 80.3901L403.897 79.0817C404.508 77.4386 405.669 74.8523 407.349 71.2619C407.96 70.1969 408.296 69.4058 408.357 68.8581L413.49 68.4321C413.215 69.3145 412.971 70.1361 412.757 70.8663C412.146 72.6007 411.627 73.7873 411.199 74.3655C410.099 75.8564 408.632 78.0472 406.799 80.9378L410.741 84.1326C411.566 86.4755 412.727 89.853 414.193 94.2345L410.863 96.0602Z" fill="#2F698D"/>
<path d="M434.023 93.3214C433.381 93.8082 431.64 94.4168 428.798 95.147C427.76 95.1166 426.843 95.0557 426.018 94.9949C424.124 94.8428 422.963 94.5993 422.565 94.2646C420.732 92.6824 419.48 91.1002 418.777 89.518C418.288 88.3617 417.769 86.2622 417.249 83.2499C416.944 78.6554 416.821 75.9778 416.883 75.2171C417.432 73.5132 418.013 72.2048 418.655 71.3224C419.541 70.0445 420.702 69.1925 422.138 68.7361C424.093 68.0971 426.14 67.7928 428.31 67.7928C431.762 67.7928 434.329 68.4014 436.101 69.6185C437.231 70.3792 437.995 71.4137 438.453 72.7221C438.881 73.8783 439.064 75.491 439.064 77.5296C439.064 78.625 439.003 80.2376 438.881 82.398C438.82 83.6151 438.27 85.4711 437.231 88.027C436.131 90.8263 435.062 92.5911 434.023 93.3214ZM432.007 72.6308C431.548 72.3874 429.532 72.1744 425.987 71.9005C425.376 72.0222 424.674 72.4787 423.849 73.2393C423.024 74 422.596 74.6694 422.565 75.1867C422.504 76.8906 422.474 78.5641 422.413 80.2376C422.352 82.6414 422.413 84.3453 422.535 85.3494C422.779 87.0229 423.543 88.6052 424.857 90.1265C425.224 90.5525 426.446 90.7655 428.554 90.7655C429.746 90.7655 430.662 90.6438 431.243 90.4308C431.67 90.2482 432.19 88.7877 432.801 86.0797C433.443 83.1587 433.779 80.481 433.779 78.0773C433.809 75.0041 433.198 73.1785 432.007 72.6308Z" fill="#2F698D"/>
<path d="M444.441 95.4209C444.503 95.1167 444.533 92.8955 444.594 88.7573C444.655 86.1102 444.594 82.7327 444.441 78.6859C444.228 72.5091 444.136 69.1621 444.136 68.6144L451.133 68.0972C450.919 69.3751 450.674 71.4746 450.399 74.4565C450.094 79.2944 449.788 84.8931 449.544 91.222L459.29 91.8305L458.771 94.4473L444.441 95.4209Z" fill="#2F698D"/>
<path d="M466.379 95.0255L462.162 94.9342C462.59 92.1653 463.018 89.6703 463.415 87.4491C464.393 82.1243 465.157 78.5947 465.798 76.7995C466.287 75.3694 466.776 73.9697 467.234 72.5701C467.57 71.6268 468.243 70.2272 469.22 68.3407L478.173 67.7626C480.617 75.8258 482.328 82.4285 483.244 87.5403L483.183 94.9646L478.448 94.4473L477.806 89.4877L470.962 90.1267L468.059 89.3964L466.379 95.0255ZM477.47 86.1711C477.562 85.6538 477.592 85.1974 477.592 84.8323C477.653 84.0108 477.256 81.7591 476.4 78.1079C475.545 74.4566 474.964 72.418 474.659 71.992L471.451 72.2658C469.954 76.8908 469.19 80.0856 469.19 81.8504L468.793 86.6884L477.47 86.1711Z" fill="#2F698D"/>
<path d="M507.657 94.1127L503.502 95.1473C500.599 86.5667 497.452 79.7815 494 74.8218L492.686 75.4303C492.319 80.3596 492.105 86.8406 492.075 94.8734L488.103 95.2994L487.095 74.2741L487.981 68.8885L495.375 68.4625C497.819 72.5093 499.53 75.3695 500.446 77.043C502.249 80.3596 503.532 83.2197 504.327 85.5931L503.93 70.8054L504.327 68.3103L510.01 68.1582C509.582 71.6573 509.246 74.9131 508.94 77.9254C508.146 85.1062 507.749 90.4919 507.657 94.1127Z" fill="#2F698D"/>
<path d="M431.059 51.2404C431.059 51.1491 431.059 51.1187 431.028 51.1187C430.998 51.1187 430.906 51.21 430.906 51.21C429.531 52.9748 427.545 53.1269 426.354 53.0356C423.146 52.8226 421.618 49.719 421.801 47.1023C422.137 42.1731 425.682 38.3088 432.434 38.7348C432.434 38.7348 433.595 38.7956 433.595 38.9782C433.595 38.9782 433.656 39.5259 433.625 40.1953C433.625 40.3474 433.564 40.6821 433.564 40.6821L433.931 40.7125C434.359 40.743 435.062 40.8038 435.367 41.0168L435.092 45.1549C434.878 48.1977 434.695 51.9707 434.634 52.8835C434.023 61.8595 427.484 62.9549 424.887 62.8028C424.673 62.8028 423.757 60.9163 423.879 59.3341L424.521 59.3645C426.232 59.4862 430.509 59.0602 431.059 51.2404ZM430.906 42.0209C427.912 41.8384 426.079 43.877 425.895 46.4329C425.804 47.65 426.507 48.9888 428.065 49.1105C430.051 49.2322 431.09 47.3457 431.12 46.9197C431.151 46.4329 431.426 42.9337 431.578 42.1731C431.639 42.0818 430.906 42.0209 430.906 42.0209Z" fill="#DBB75C"/>
<path d="M437.383 47.5283C437.475 43.5423 440.653 39.4346 446.244 39.5563C446.244 39.5563 447.863 39.6476 448.047 39.8606C448.077 39.891 448.108 40.104 448.108 40.317C448.108 40.743 448.016 41.2907 447.985 41.5037C448.322 41.5341 451.805 42.7208 451.682 47.3457C451.591 51.2404 448.963 54.9221 444.289 54.8308C439.767 54.7091 437.292 51.6055 437.383 47.5283ZM441.569 37.7611C440.622 37.7307 439.889 37.0917 439.919 35.9963C439.95 35.1443 440.775 34.3532 441.722 34.3837C442.669 34.4141 443.433 35.1748 443.402 36.0876C443.372 36.97 442.516 37.7611 441.569 37.7611ZM445.297 44.4247H445.022C444.991 44.3638 444.961 44.1813 444.961 43.9987C444.961 43.6336 445.052 43.1772 445.083 43.0555C443.464 43.025 441.264 44.3943 441.203 47.5587C441.203 47.8934 441.111 51.4838 444.35 51.5447C445.938 51.5751 447.711 50.4797 447.772 47.5587C447.863 44.729 446.03 44.4247 445.297 44.4247ZM447.894 37.9132C446.947 37.8828 446.213 37.2438 446.244 36.1484C446.274 35.2965 447.099 34.5054 448.047 34.5054C448.994 34.5358 449.727 35.2965 449.697 36.2093C449.666 37.1221 448.841 37.9132 447.894 37.9132Z" fill="#DBB75C"/>
<path d="M458.802 38.4305C460.177 38.4913 461.338 38.5522 461.338 38.613C461.277 40.2257 460.635 41.5341 460.269 41.5341L458.924 41.4732H458.68C458.558 43.9683 458.435 46.7676 458.344 49.0192C458.252 51.3012 458.252 53.066 458.283 53.7963C458.405 55.2872 459.077 56.2305 459.566 56.7173C459.535 57.1129 457.458 58.4212 455.777 58.3604C455.655 58.3604 454.616 57.2346 454.463 55.1351C454.402 54.5874 454.463 53.2182 454.524 51.5142C454.647 47.863 454.891 42.7512 454.983 41.4124C453.944 41.3819 453.088 41.3819 453.088 41.3819C452.997 41.2907 452.936 40.7734 452.966 40.1953C452.997 39.4346 453.119 38.5218 453.333 38.3392C453.333 38.3392 454.066 38.3392 455.136 38.3392C455.197 35.8137 455.044 35.479 455.044 35.1139C455.074 34.6271 457.091 33.9577 458.313 34.0185C458.619 34.0185 459.138 34.1098 459.138 34.1707C459.077 34.5966 458.955 36.2397 458.802 38.4305Z" fill="#DBB75C"/>
<path d="M461.429 48.2584C461.612 44.029 464.515 40.256 469.954 40.4994C471.542 40.5603 474.17 41.3514 474.017 44.242C473.895 47.0109 471.237 49.8711 466.837 51.1186C466.837 51.3012 467.509 52.0314 469.251 52.0923C470.687 52.1531 472.245 51.9706 473.315 51.3924C473.315 51.3924 473.345 51.362 473.376 51.362C473.437 51.362 473.467 51.788 473.437 51.9706C473.406 52.7617 473.131 54.1005 472.459 54.8612C472.459 54.8612 471.267 55.561 468.029 55.4088C463.354 55.2263 461.246 52.0618 461.429 48.2584ZM469.556 43.3596C467.723 43.2683 465.982 45.307 465.859 47.8629C465.829 48.228 465.829 48.3193 465.982 48.3193C467.387 48.3497 470.442 46.5241 470.565 44.3333C470.565 43.6639 470.045 43.39 469.556 43.3596Z" fill="#DBB75C"/>
<path d="M475.667 57.4171C475.912 56.6565 476.126 53.8571 476.309 50.5101C476.553 46.585 476.767 41.8383 476.951 38.4609C477.103 36.0571 477.226 34.3532 477.378 34.2315C477.867 33.8055 479.334 33.2274 480.525 33.2882C480.831 33.2882 481.35 33.41 481.35 33.4708C481.259 33.8359 480.617 40.1344 480.617 41.3515L481.167 41.3819C483.183 41.5036 489.6 42.2947 489.203 48.7149C488.958 53.0965 484.467 55.5915 479.792 56.0479C479.792 56.0479 479.761 56.8086 479.7 56.8694C478.998 57.478 477.073 57.5997 476.156 57.5693C475.942 57.5388 475.667 57.5084 475.667 57.4171ZM485.261 48.2585C485.414 45.7939 483.458 44.8811 481.961 44.7898C481.35 44.7594 480.403 44.7898 480.403 44.7898L480.281 47.1327C480.128 49.6277 480.036 51.7576 480.098 52.4271C480.586 52.4879 485.017 52.6705 485.261 48.2585Z" fill="#DBB75C"/>
<path d="M491.28 48.8671C491.555 44.8811 494.916 40.9256 500.508 41.2907C500.508 41.2907 502.127 41.4733 502.31 41.6862C502.341 41.7167 502.371 41.9297 502.341 42.1427C502.31 42.5686 502.219 43.1163 502.158 43.2989C502.494 43.3597 505.916 44.6986 505.58 49.2931C505.305 53.1878 502.524 56.7478 497.849 56.4435C493.328 56.1392 491.005 52.9139 491.28 48.8671ZM499.347 46.0678L499.072 46.0374C499.041 46.0069 499.041 45.8244 499.041 45.6418C499.072 45.2767 499.163 44.8203 499.194 44.6985C497.574 44.5768 495.314 45.8852 495.1 49.0192C495.069 49.3539 494.825 52.9444 498.063 53.1573C499.652 53.2486 501.485 52.2445 501.669 49.3235C501.883 46.4938 500.049 46.1286 499.347 46.0678Z" fill="#DBB75C"/>
<path d="M517.006 47.0415C516.915 47.011 516.579 46.9502 516.579 46.9502C513.157 46.6763 511.996 49.5061 511.996 49.7191L511.751 52.5792C511.598 54.4353 511.415 56.4739 511.323 56.5652C510.468 57.2651 508.421 57.2346 507.565 57.1433C507.443 57.1433 507.29 57.1129 507.29 57.0216C507.596 55.9567 507.779 54.0093 507.962 51.9098C508.176 49.2931 508.36 46.4025 508.512 44.516C508.604 43.3598 508.696 42.5686 508.818 42.4774C509.337 42.0514 510.743 41.7167 511.965 41.808C512.27 41.8384 512.668 41.9297 512.668 42.021C512.607 42.2948 512.454 43.5423 512.362 44.3943C512.362 44.4551 512.301 45.155 512.362 45.155C512.393 45.155 512.423 45.155 512.484 45.0941C512.484 45.0941 514.593 42.6295 517.709 42.8729C517.709 42.8729 517.953 43.3293 517.892 44.1204C517.678 46.3112 517.006 47.0415 517.006 47.0415Z" fill="#DBB75C"/>
<path d="M525.561 57.9955C525.592 57.9042 525.592 57.8738 525.561 57.8738C525.531 57.8738 525.439 57.965 525.439 57.965C523.881 59.5777 521.864 59.5168 520.703 59.3038C517.556 58.7562 516.365 55.5004 516.854 52.9141C517.74 48.0457 521.712 44.6074 528.372 45.7637C528.372 45.7637 529.533 45.9767 529.503 46.1288C529.503 46.1288 529.503 46.7069 529.381 47.3459C529.35 47.498 529.258 47.8327 529.258 47.8327L529.625 47.8936C530.053 47.9849 530.756 48.137 531 48.35L530.236 52.4273C529.686 55.4091 529.045 59.1517 528.892 60.0645C527.242 68.9189 520.642 69.3144 518.076 68.858C517.892 68.8276 517.19 66.8803 517.465 65.298L518.106 65.4197C519.817 65.6632 524.125 65.6936 525.561 57.9955ZM526.478 48.8064C523.514 48.2892 521.467 50.1148 521.009 52.6707C520.795 53.8574 521.314 55.2874 522.873 55.5613C524.828 55.896 526.081 54.1312 526.172 53.7052C526.264 53.2184 526.936 49.7801 527.181 49.0194C527.181 48.9281 526.478 48.8064 526.478 48.8064Z" fill="#DBB75C"/>
</svg>
